ISO-10303-21;
HEADER;

/* File generated by Shapr3D Version 3.0 */

FILE_DESCRIPTION(('HOOPS Exchange Step'),'2;1');

FILE_NAME('C:\\Users\\30abd\\AppData\\Local\\Packages\\Shapr3D.Shapr3D_dvv5p1vgwv6mp\\TempState\\export\\temp_export',
'2023-01-09T12:29:12+08:00',
('30abd'),
('Shapr3D Limited'),
'HOOPS Exchange 2022.0',
'Shapr3D',
'Authorized');

FILE_SCHEMA( ('AUTOMOTIVE_DESIGN { 1 0 10303 214 1 1 1 1 }') );

ENDSEC;

DATA;
#3=(NAMED_UNIT(*)PLANE_ANGLE_UNIT()SI_UNIT($,.RADIAN.));
#4=PLANE_ANGLE_MEASURE_WITH_UNIT(PLANE_ANGLE_MEASURE(0.0174532925),#3);
#5=(CONVERSION_BASED_UNIT('DEGREE',#4)NAMED_UNIT(#6)PLANE_ANGLE_UNIT());
#6=DIMENSIONAL_EXPONENTS(0.,0.,0.,0.,0.,0.,0.);
#7=(NAMED_UNIT(*)SI_UNIT($,.STERADIAN.)SOLID_ANGLE_UNIT());
#8=(LENGTH_UNIT()NAMED_UNIT(*)SI_UNIT(.MILLI.,.METRE.));
#9=UNCERTAINTY_MEASURE_WITH_UNIT(LENGTH_MEASURE(1.000000E-05),#8,'DISTANCE_ACCURACY_VALUE','Maximum Tolerance applied to model');
#10=(GEOMETRIC_REPRESENTATION_CONTEXT(3)GLOBAL_UNCERTAINTY_ASSIGNED_CONTEXT((#9))GLOBAL_UNIT_ASSIGNED_CONTEXT((#8,#5,#7))REPRESENTATION_CONTEXT('','root'));
#12=CARTESIAN_POINT('',(0.,0.,0.));
#13=DIRECTION('',(0.,0.,1.));
#14=DIRECTION('',(1.,0.,0.));
#15=AXIS2_PLACEMENT_3D('',#12,#13,#14);
#27=CARTESIAN_POINT('',(-0.85,1.025,0.175));
#28=DIRECTION('',(1.,0.,0.));
#29=DIRECTION('',(0.,0.,-1.));
#30=AXIS2_PLACEMENT_3D('',#27,#28,#29);
#31=PLANE('',#30);
#32=CARTESIAN_POINT('',(-0.85,-1.025,0.));
#33=VERTEX_POINT('',#32);
#34=CARTESIAN_POINT('',(-0.85,-1.025,0.35));
#35=VERTEX_POINT('',#34);
#36=CARTESIAN_POINT('',(-0.85,-1.025,0.));
#37=DIRECTION('',(0.,0.,1.));
#38=VECTOR('',#37,0.35);
#39=LINE('',#36,#38);
#40=EDGE_CURVE('',#33,#35,#39,.T.);
#41=ORIENTED_EDGE('',*,*,#40,.T.);
#42=CARTESIAN_POINT('',(-0.85,1.025,0.35));
#43=VERTEX_POINT('',#42);
#44=CARTESIAN_POINT('',(-0.85,1.025,0.35));
#45=DIRECTION('',(0.,-1.,0.));
#46=VECTOR('',#45,2.05);
#47=LINE('',#44,#46);
#48=EDGE_CURVE('',#43,#35,#47,.T.);
#49=ORIENTED_EDGE('',*,*,#48,.F.);
#50=CARTESIAN_POINT('',(-0.85,1.025,0.));
#51=VERTEX_POINT('',#50);
#52=CARTESIAN_POINT('',(-0.85,1.025,0.));
#53=DIRECTION('',(0.,0.,1.));
#54=VECTOR('',#53,0.35);
#55=LINE('',#52,#54);
#56=EDGE_CURVE('',#51,#43,#55,.T.);
#57=ORIENTED_EDGE('',*,*,#56,.F.);
#58=CARTESIAN_POINT('',(-0.85,1.025,0.));
#59=DIRECTION('',(0.,-1.,0.));
#60=VECTOR('',#59,2.05);
#61=LINE('',#58,#60);
#62=EDGE_CURVE('',#51,#33,#61,.T.);
#63=ORIENTED_EDGE('',*,*,#62,.T.);
#64=EDGE_LOOP('',(#41,#49,#57,#63));
#65=FACE_BOUND('',#64,.T.);
#66=ADVANCED_FACE('',(#65),#31,.F.);
#67=CARTESIAN_POINT('',(0.,1.025,0.));
#68=DIRECTION('',(0.,0.,1.));
#69=DIRECTION('',(1.,0.,0.));
#70=AXIS2_PLACEMENT_3D('',#67,#68,#69);
#71=PLANE('',#70);
#72=CARTESIAN_POINT('',(0.85,-1.025,0.));
#73=VERTEX_POINT('',#72);
#74=CARTESIAN_POINT('',(0.85,-1.025,0.));
#75=DIRECTION('',(-1.,-0.,0.));
#76=VECTOR('',#75,1.7);
#77=LINE('',#74,#76);
#78=EDGE_CURVE('',#73,#33,#77,.T.);
#79=ORIENTED_EDGE('',*,*,#78,.T.);
#80=ORIENTED_EDGE('',*,*,#62,.F.);
#81=CARTESIAN_POINT('',(0.85,1.025,0.));
#82=VERTEX_POINT('',#81);
#83=CARTESIAN_POINT('',(0.85,1.025,0.));
#84=DIRECTION('',(-1.,-0.,0.));
#85=VECTOR('',#84,1.7);
#86=LINE('',#83,#85);
#87=EDGE_CURVE('',#82,#51,#86,.T.);
#88=ORIENTED_EDGE('',*,*,#87,.F.);
#89=CARTESIAN_POINT('',(0.85,1.025,0.));
#90=DIRECTION('',(0.,-1.,0.));
#91=VECTOR('',#90,2.05);
#92=LINE('',#89,#91);
#93=EDGE_CURVE('',#82,#73,#92,.T.);
#94=ORIENTED_EDGE('',*,*,#93,.T.);
#95=EDGE_LOOP('',(#79,#80,#88,#94));
#96=FACE_BOUND('',#95,.T.);
#97=ADVANCED_FACE('',(#96),#71,.F.);
#98=CARTESIAN_POINT('',(0.85,1.025,0.175));
#99=DIRECTION('',(-1.,0.,0.));
#100=DIRECTION('',(0.,0.,1.));
#101=AXIS2_PLACEMENT_3D('',#98,#99,#100);
#102=PLANE('',#101);
#103=CARTESIAN_POINT('',(0.85,-1.025,0.35));
#104=VERTEX_POINT('',#103);
#105=CARTESIAN_POINT('',(0.85,-1.025,0.35));
#106=DIRECTION('',(0.,0.,-1.));
#107=VECTOR('',#106,0.35);
#108=LINE('',#105,#107);
#109=EDGE_CURVE('',#104,#73,#108,.T.);
#110=ORIENTED_EDGE('',*,*,#109,.T.);
#111=ORIENTED_EDGE('',*,*,#93,.F.);
#112=CARTESIAN_POINT('',(0.85,1.025,0.35));
#113=VERTEX_POINT('',#112);
#114=CARTESIAN_POINT('',(0.85,1.025,0.35));
#115=DIRECTION('',(0.,0.,-1.));
#116=VECTOR('',#115,0.35);
#117=LINE('',#114,#116);
#118=EDGE_CURVE('',#113,#82,#117,.T.);
#119=ORIENTED_EDGE('',*,*,#118,.F.);
#120=CARTESIAN_POINT('',(0.85,1.025,0.35));
#121=DIRECTION('',(0.,-1.,0.));
#122=VECTOR('',#121,2.05);
#123=LINE('',#120,#122);
#124=EDGE_CURVE('',#113,#104,#123,.T.);
#125=ORIENTED_EDGE('',*,*,#124,.T.);
#126=EDGE_LOOP('',(#110,#111,#119,#125));
#127=FACE_BOUND('',#126,.T.);
#128=ADVANCED_FACE('',(#127),#102,.F.);
#129=CARTESIAN_POINT('',(0.,1.025,0.35));
#130=DIRECTION('',(0.,0.,-1.));
#131=DIRECTION('',(-1.,0.,0.));
#132=AXIS2_PLACEMENT_3D('',#129,#130,#131);
#133=PLANE('',#132);
#134=CARTESIAN_POINT('',(-0.85,-1.025,0.35));
#135=DIRECTION('',(1.,0.,-0.));
#136=VECTOR('',#135,1.7);
#137=LINE('',#134,#136);
#138=EDGE_CURVE('',#35,#104,#137,.T.);
#139=ORIENTED_EDGE('',*,*,#138,.T.);
#140=ORIENTED_EDGE('',*,*,#124,.F.);
#141=CARTESIAN_POINT('',(-0.85,1.025,0.35));
#142=DIRECTION('',(1.,0.,-0.));
#143=VECTOR('',#142,1.7);
#144=LINE('',#141,#143);
#145=EDGE_CURVE('',#43,#113,#144,.T.);
#146=ORIENTED_EDGE('',*,*,#145,.F.);
#147=ORIENTED_EDGE('',*,*,#48,.T.);
#148=EDGE_LOOP('',(#139,#140,#146,#147));
#149=FACE_BOUND('',#148,.T.);
#150=ADVANCED_FACE('',(#149),#133,.F.);
#151=CARTESIAN_POINT('',(0.,1.025,0.));
#152=DIRECTION('',(0.,-1.,0.));
#153=DIRECTION('',(1.,0.,0.));
#154=AXIS2_PLACEMENT_3D('',#151,#152,#153);
#155=PLANE('',#154);
#156=ORIENTED_EDGE('',*,*,#56,.T.);
#157=ORIENTED_EDGE('',*,*,#145,.T.);
#158=ORIENTED_EDGE('',*,*,#118,.T.);
#159=ORIENTED_EDGE('',*,*,#87,.T.);
#160=EDGE_LOOP('',(#156,#157,#158,#159));
#161=FACE_BOUND('',#160,.T.);
#162=ADVANCED_FACE('',(#161),#155,.F.);
#163=CARTESIAN_POINT('',(0.,-1.025,0.));
#164=DIRECTION('',(0.,-1.,0.));
#165=DIRECTION('',(1.,0.,0.));
#166=AXIS2_PLACEMENT_3D('',#163,#164,#165);
#167=PLANE('',#166);
#168=ORIENTED_EDGE('',*,*,#40,.F.);
#169=ORIENTED_EDGE('',*,*,#78,.F.);
#170=ORIENTED_EDGE('',*,*,#109,.F.);
#171=ORIENTED_EDGE('',*,*,#138,.F.);
#172=EDGE_LOOP('',(#168,#169,#170,#171));
#173=FACE_BOUND('',#172,.T.);
#174=ADVANCED_FACE('',(#173),#167,.T.);
#175=CLOSED_SHELL('',(#66,#97,#128,#150,#162,#174));
#176=MANIFOLD_SOLID_BREP('Body 04',#175);
#177=COLOUR_RGB('',0.796078444,0.796078444,0.815686285);
#178=FILL_AREA_STYLE_COLOUR('',#177);
#179=FILL_AREA_STYLE('',(#178));
#180=SURFACE_STYLE_FILL_AREA(#179);
#181=SURFACE_SIDE_STYLE('',(#180));
#182=SURFACE_STYLE_USAGE(.BOTH.,#181);
#183=PRESENTATION_STYLE_ASSIGNMENT((#182));
#26=STYLED_ITEM('',(#183),#176);
#185=CARTESIAN_POINT('',(1.325,0.,0.535));
#186=DIRECTION('',(0.,-0.,1.));
#187=DIRECTION('',(0.,-1.,-0.));
#188=AXIS2_PLACEMENT_3D('',#185,#186,#187);
#189=PLANE('',#188);
#190=CARTESIAN_POINT('',(1.380050123,0.3,0.535));
#191=VERTEX_POINT('',#190);
#192=CARTESIAN_POINT('',(1.025,0.3,0.535));
#193=VERTEX_POINT('',#192);
#194=CARTESIAN_POINT('',(1.380050123,0.3,0.535));
#195=DIRECTION('',(-1.,0.,0.));
#196=VECTOR('',#195,0.355050123);
#197=LINE('',#194,#196);
#198=EDGE_CURVE('',#191,#193,#197,.T.);
#199=ORIENTED_EDGE('',*,*,#198,.F.);
#200=CARTESIAN_POINT('',(1.380050123,-0.3,0.535));
#201=VERTEX_POINT('',#200);
#202=CARTESIAN_POINT('',(1.380050123,0.3,0.535));
#203=DIRECTION('',(-0.,-1.,-0.));
#204=VECTOR('',#203,0.6);
#205=LINE('',#202,#204);
#206=EDGE_CURVE('',#191,#201,#205,.T.);
#207=ORIENTED_EDGE('',*,*,#206,.T.);
#208=CARTESIAN_POINT('',(1.025,-0.3,0.535));
#209=VERTEX_POINT('',#208);
#210=CARTESIAN_POINT('',(1.380050123,-0.3,0.535));
#211=DIRECTION('',(-1.,0.,0.));
#212=VECTOR('',#211,0.355050123);
#213=LINE('',#210,#212);
#214=EDGE_CURVE('',#201,#209,#213,.T.);
#215=ORIENTED_EDGE('',*,*,#214,.T.);
#216=CARTESIAN_POINT('',(1.025,-0.3,0.535));
#217=DIRECTION('',(0.,1.,0.));
#218=VECTOR('',#217,0.6);
#219=LINE('',#216,#218);
#220=EDGE_CURVE('',#209,#193,#219,.T.);
#221=ORIENTED_EDGE('',*,*,#220,.T.);
#222=EDGE_LOOP('',(#199,#207,#215,#221));
#223=FACE_BOUND('',#222,.T.);
#224=ADVANCED_FACE('',(#223),#189,.F.);
#225=CARTESIAN_POINT('',(1.325,-0.3,0.66));
#226=DIRECTION('',(0.,-1.,0.));
#227=DIRECTION('',(0.,0.,-1.));
#228=AXIS2_PLACEMENT_3D('',#225,#226,#227);
#229=PLANE('',#228);
#230=CARTESIAN_POINT('',(1.569882423,-0.3,0.18658244));
#231=VERTEX_POINT('',#230);
#232=CARTESIAN_POINT('',(1.464622459,-0.3,0.475781813));
#233=VERTEX_POINT('',#232);
#234=CARTESIAN_POINT('',(1.569882423,-0.3,0.18658244));
#235=DIRECTION('',(-0.342020143,0.,0.939692621));
#236=VECTOR('',#235,0.307759544);
#237=LINE('',#234,#236);
#238=EDGE_CURVE('',#231,#233,#237,.T.);
#239=ORIENTED_EDGE('',*,*,#238,.F.);
#240=CARTESIAN_POINT('',(1.689237586,-0.3,0.094998002));
#241=VERTEX_POINT('',#240);
#242=CARTESIAN_POINT('',(1.70143939,-0.3,0.23446526));
#243=DIRECTION('',(0.,-1.,0.));
#244=DIRECTION('',(0.,0.,-1.));
#245=AXIS2_PLACEMENT_3D('',#242,#243,#244);
#246=CIRCLE('',#245,0.14);
#247=EDGE_CURVE('',#231,#241,#246,.T.);
#248=ORIENTED_EDGE('',*,*,#247,.T.);
#249=CARTESIAN_POINT('',(2.528730091,-0.3,0.021551925));
#250=VERTEX_POINT('',#249);
#251=CARTESIAN_POINT('',(2.528730091,-0.3,0.021551925));
#252=DIRECTION('',(-0.996194698,0.,0.087155743));
#253=VECTOR('',#252,0.842699231);
#254=LINE('',#251,#253);
#255=EDGE_CURVE('',#250,#241,#254,.T.);
#256=ORIENTED_EDGE('',*,*,#255,.F.);
#257=CARTESIAN_POINT('',(2.550519027,-0.3,0.2706006));
#258=VERTEX_POINT('',#257);
#259=CARTESIAN_POINT('',(2.528730091,-0.3,0.021551925));
#260=DIRECTION('',(0.087155743,0.,0.996194698));
#261=VECTOR('',#260,0.25);
#262=LINE('',#259,#261);
#263=EDGE_CURVE('',#250,#258,#262,.T.);
#264=ORIENTED_EDGE('',*,*,#263,.T.);
#265=CARTESIAN_POINT('',(1.869688025,-0.3,0.330165594));
#266=VERTEX_POINT('',#265);
#267=CARTESIAN_POINT('',(2.550519027,-0.3,0.2706006));
#268=DIRECTION('',(-0.996194698,0.,0.087155743));
#269=VECTOR('',#268,0.683431665);
#270=LINE('',#267,#269);
#271=EDGE_CURVE('',#258,#266,#270,.T.);
#272=ORIENTED_EDGE('',*,*,#271,.T.);
#273=CARTESIAN_POINT('',(1.750332863,-0.3,0.421750032));
#274=VERTEX_POINT('',#273);
#275=CARTESIAN_POINT('',(1.881889829,-0.3,0.469632852));
#276=DIRECTION('',(-0.,1.,-0.));
#277=DIRECTION('',(0.,0.,-1.));
#278=AXIS2_PLACEMENT_3D('',#275,#276,#277);
#279=CIRCLE('',#278,0.14);
#280=EDGE_CURVE('',#266,#274,#279,.T.);
#281=ORIENTED_EDGE('',*,*,#280,.T.);
#282=CARTESIAN_POINT('',(1.639674344,-0.3,0.725781813));
#283=VERTEX_POINT('',#282);
#284=CARTESIAN_POINT('',(1.750332863,-0.3,0.421750032));
#285=DIRECTION('',(-0.342020143,0.,0.939692621));
#286=VECTOR('',#285,0.323543864);
#287=LINE('',#284,#286);
#288=EDGE_CURVE('',#274,#283,#287,.T.);
#289=ORIENTED_EDGE('',*,*,#288,.T.);
#290=CARTESIAN_POINT('',(1.555102008,-0.3,0.785));
#291=VERTEX_POINT('',#290);
#292=CARTESIAN_POINT('',(1.555102008,-0.3,0.695));
#293=DIRECTION('',(0.,-1.,0.));
#294=DIRECTION('',(0.,0.,-1.));
#295=AXIS2_PLACEMENT_3D('',#292,#293,#294);
#296=CIRCLE('',#295,0.09);
#297=EDGE_CURVE('',#283,#291,#296,.T.);
#298=ORIENTED_EDGE('',*,*,#297,.T.);
#299=CARTESIAN_POINT('',(1.025,-0.3,0.785));
#300=VERTEX_POINT('',#299);
#301=CARTESIAN_POINT('',(1.555102008,-0.3,0.785));
#302=DIRECTION('',(-1.,0.,0.));
#303=VECTOR('',#302,0.530102008);
#304=LINE('',#301,#303);
#305=EDGE_CURVE('',#291,#300,#304,.T.);
#306=ORIENTED_EDGE('',*,*,#305,.T.);
#307=CARTESIAN_POINT('',(1.025,-0.3,0.535));
#308=DIRECTION('',(0.,0.,1.));
#309=VECTOR('',#308,0.25);
#310=LINE('',#307,#309);
#311=EDGE_CURVE('',#209,#300,#310,.T.);
#312=ORIENTED_EDGE('',*,*,#311,.F.);
#313=ORIENTED_EDGE('',*,*,#214,.F.);
#314=CARTESIAN_POINT('',(1.380050123,-0.3,0.445));
#315=DIRECTION('',(-0.,1.,-0.));
#316=DIRECTION('',(0.,0.,-1.));
#317=AXIS2_PLACEMENT_3D('',#314,#315,#316);
#318=CIRCLE('',#317,0.09);
#319=EDGE_CURVE('',#201,#233,#318,.T.);
#320=ORIENTED_EDGE('',*,*,#319,.T.);
#321=EDGE_LOOP('',(#239,#248,#256,#264,#272,#281,#289,#298,#306,#312,#313,#320));
#322=FACE_BOUND('',#321,.T.);
#323=ADVANCED_FACE('',(#322),#229,.T.);
#324=CARTESIAN_POINT('',(1.325,0.3,0.66));
#325=DIRECTION('',(0.,1.,0.));
#326=DIRECTION('',(0.,0.,1.));
#327=AXIS2_PLACEMENT_3D('',#324,#325,#326);
#328=PLANE('',#327);
#329=CARTESIAN_POINT('',(2.528730091,0.3,0.021551925));
#330=VERTEX_POINT('',#329);
#331=CARTESIAN_POINT('',(1.689237586,0.3,0.094998002));
#332=VERTEX_POINT('',#331);
#333=CARTESIAN_POINT('',(2.528730091,0.3,0.021551925));
#334=DIRECTION('',(-0.996194698,0.,0.087155743));
#335=VECTOR('',#334,0.842699231);
#336=LINE('',#333,#335);
#337=EDGE_CURVE('',#330,#332,#336,.T.);
#338=ORIENTED_EDGE('',*,*,#337,.T.);
#339=CARTESIAN_POINT('',(1.569882423,0.3,0.18658244));
#340=VERTEX_POINT('',#339);
#341=CARTESIAN_POINT('',(1.70143939,0.3,0.23446526));
#342=DIRECTION('',(0.,1.,0.));
#343=DIRECTION('',(0.,-0.,1.));
#344=AXIS2_PLACEMENT_3D('',#341,#342,#343);
#345=CIRCLE('',#344,0.14);
#346=EDGE_CURVE('',#332,#340,#345,.T.);
#347=ORIENTED_EDGE('',*,*,#346,.T.);
#348=CARTESIAN_POINT('',(1.464622459,0.3,0.475781813));
#349=VERTEX_POINT('',#348);
#350=CARTESIAN_POINT('',(1.569882423,0.3,0.18658244));
#351=DIRECTION('',(-0.342020143,0.,0.939692621));
#352=VECTOR('',#351,0.307759544);
#353=LINE('',#350,#352);
#354=EDGE_CURVE('',#340,#349,#353,.T.);
#355=ORIENTED_EDGE('',*,*,#354,.T.);
#356=CARTESIAN_POINT('',(1.380050123,0.3,0.445));
#357=DIRECTION('',(-0.,-1.,-0.));
#358=DIRECTION('',(0.,-0.,1.));
#359=AXIS2_PLACEMENT_3D('',#356,#357,#358);
#360=CIRCLE('',#359,0.09);
#361=EDGE_CURVE('',#349,#191,#360,.T.);
#362=ORIENTED_EDGE('',*,*,#361,.T.);
#363=ORIENTED_EDGE('',*,*,#198,.T.);
#364=CARTESIAN_POINT('',(1.025,0.3,0.785));
#365=VERTEX_POINT('',#364);
#366=CARTESIAN_POINT('',(1.025,0.3,0.785));
#367=DIRECTION('',(0.,0.,-1.));
#368=VECTOR('',#367,0.25);
#369=LINE('',#366,#368);
#370=EDGE_CURVE('',#365,#193,#369,.T.);
#371=ORIENTED_EDGE('',*,*,#370,.F.);
#372=CARTESIAN_POINT('',(1.555102008,0.3,0.785));
#373=VERTEX_POINT('',#372);
#374=CARTESIAN_POINT('',(1.555102008,0.3,0.785));
#375=DIRECTION('',(-1.,0.,0.));
#376=VECTOR('',#375,0.530102008);
#377=LINE('',#374,#376);
#378=EDGE_CURVE('',#373,#365,#377,.T.);
#379=ORIENTED_EDGE('',*,*,#378,.F.);
#380=CARTESIAN_POINT('',(1.639674344,0.3,0.725781813));
#381=VERTEX_POINT('',#380);
#382=CARTESIAN_POINT('',(1.555102008,0.3,0.695));
#383=DIRECTION('',(0.,1.,0.));
#384=DIRECTION('',(0.,-0.,1.));
#385=AXIS2_PLACEMENT_3D('',#382,#383,#384);
#386=CIRCLE('',#385,0.09);
#387=EDGE_CURVE('',#373,#381,#386,.T.);
#388=ORIENTED_EDGE('',*,*,#387,.T.);
#389=CARTESIAN_POINT('',(1.750332863,0.3,0.421750032));
#390=VERTEX_POINT('',#389);
#391=CARTESIAN_POINT('',(1.750332863,0.3,0.421750032));
#392=DIRECTION('',(-0.342020143,0.,0.939692621));
#393=VECTOR('',#392,0.323543864);
#394=LINE('',#391,#393);
#395=EDGE_CURVE('',#390,#381,#394,.T.);
#396=ORIENTED_EDGE('',*,*,#395,.F.);
#397=CARTESIAN_POINT('',(1.869688025,0.3,0.330165594));
#398=VERTEX_POINT('',#397);
#399=CARTESIAN_POINT('',(1.881889829,0.3,0.469632852));
#400=DIRECTION('',(-0.,-1.,-0.));
#401=DIRECTION('',(0.,-0.,1.));
#402=AXIS2_PLACEMENT_3D('',#399,#400,#401);
#403=CIRCLE('',#402,0.14);
#404=EDGE_CURVE('',#390,#398,#403,.T.);
#405=ORIENTED_EDGE('',*,*,#404,.T.);
#406=CARTESIAN_POINT('',(2.550519027,0.3,0.2706006));
#407=VERTEX_POINT('',#406);
#408=CARTESIAN_POINT('',(2.550519027,0.3,0.2706006));
#409=DIRECTION('',(-0.996194698,0.,0.087155743));
#410=VECTOR('',#409,0.683431665);
#411=LINE('',#408,#410);
#412=EDGE_CURVE('',#407,#398,#411,.T.);
#413=ORIENTED_EDGE('',*,*,#412,.F.);
#414=CARTESIAN_POINT('',(2.550519027,0.3,0.2706006));
#415=DIRECTION('',(-0.087155743,0.,-0.996194698));
#416=VECTOR('',#415,0.25);
#417=LINE('',#414,#416);
#418=EDGE_CURVE('',#407,#330,#417,.T.);
#419=ORIENTED_EDGE('',*,*,#418,.T.);
#420=EDGE_LOOP('',(#338,#347,#355,#362,#363,#371,#379,#388,#396,#405,#413,#419));
#421=FACE_BOUND('',#420,.T.);
#422=ADVANCED_FACE('',(#421),#328,.T.);
#423=CARTESIAN_POINT('',(1.325,0.,0.785));
#424=DIRECTION('',(0.,-0.,1.));
#425=DIRECTION('',(0.,-1.,-0.));
#426=AXIS2_PLACEMENT_3D('',#423,#424,#425);
#427=PLANE('',#426);
#428=ORIENTED_EDGE('',*,*,#305,.F.);
#429=CARTESIAN_POINT('',(1.555102008,-0.3,0.785));
#430=DIRECTION('',(0.,1.,0.));
#431=VECTOR('',#430,0.6);
#432=LINE('',#429,#431);
#433=EDGE_CURVE('',#291,#373,#432,.T.);
#434=ORIENTED_EDGE('',*,*,#433,.T.);
#435=ORIENTED_EDGE('',*,*,#378,.T.);
#436=CARTESIAN_POINT('',(1.025,-0.3,0.785));
#437=DIRECTION('',(0.,1.,0.));
#438=VECTOR('',#437,0.6);
#439=LINE('',#436,#438);
#440=EDGE_CURVE('',#300,#365,#439,.T.);
#441=ORIENTED_EDGE('',*,*,#440,.F.);
#442=EDGE_LOOP('',(#428,#434,#435,#441));
#443=FACE_BOUND('',#442,.T.);
#444=ADVANCED_FACE('',(#443),#427,.T.);
#445=CARTESIAN_POINT('',(1.025,0.,0.));
#446=DIRECTION('',(1.,0.,0.));
#447=DIRECTION('',(0.,1.,0.));
#448=AXIS2_PLACEMENT_3D('',#445,#446,#447);
#449=PLANE('',#448);
#450=ORIENTED_EDGE('',*,*,#311,.T.);
#451=ORIENTED_EDGE('',*,*,#440,.T.);
#452=ORIENTED_EDGE('',*,*,#370,.T.);
#453=ORIENTED_EDGE('',*,*,#220,.F.);
#454=EDGE_LOOP('',(#450,#451,#452,#453));
#455=FACE_BOUND('',#454,.T.);
#456=ADVANCED_FACE('',(#455),#449,.F.);
#457=CARTESIAN_POINT('',(1.259539207,0.,1.039243419));
#458=DIRECTION('',(0.939692621,-0.,0.342020143));
#459=DIRECTION('',(-0.,-1.,-0.));
#460=AXIS2_PLACEMENT_3D('',#457,#458,#459);
#461=PLANE('',#460);
#462=ORIENTED_EDGE('',*,*,#354,.F.);
#463=CARTESIAN_POINT('',(1.569882423,0.3,0.18658244));
#464=DIRECTION('',(-0.,-1.,-0.));
#465=VECTOR('',#464,0.6);
#466=LINE('',#463,#465);
#467=EDGE_CURVE('',#340,#231,#466,.T.);
#468=ORIENTED_EDGE('',*,*,#467,.T.);
#469=ORIENTED_EDGE('',*,*,#238,.T.);
#470=CARTESIAN_POINT('',(1.464622459,-0.3,0.475781813));
#471=DIRECTION('',(0.,1.,0.));
#472=VECTOR('',#471,0.6);
#473=LINE('',#470,#472);
#474=EDGE_CURVE('',#233,#349,#473,.T.);
#475=ORIENTED_EDGE('',*,*,#474,.T.);
#476=EDGE_LOOP('',(#462,#468,#469,#475));
#477=FACE_BOUND('',#476,.T.);
#478=ADVANCED_FACE('',(#477),#461,.F.);
#479=CARTESIAN_POINT('',(1.494462362,0.,1.124748455));
#480=DIRECTION('',(0.939692621,-0.,0.342020143));
#481=DIRECTION('',(-0.,-1.,-0.));
#482=AXIS2_PLACEMENT_3D('',#479,#480,#481);
#483=PLANE('',#482);
#484=ORIENTED_EDGE('',*,*,#288,.F.);
#485=CARTESIAN_POINT('',(1.750332863,-0.3,0.421750032));
#486=DIRECTION('',(0.,1.,0.));
#487=VECTOR('',#486,0.6);
#488=LINE('',#485,#487);
#489=EDGE_CURVE('',#274,#390,#488,.T.);
#490=ORIENTED_EDGE('',*,*,#489,.T.);
#491=ORIENTED_EDGE('',*,*,#395,.T.);
#492=CARTESIAN_POINT('',(1.639674344,0.3,0.725781813));
#493=DIRECTION('',(-0.,-1.,-0.));
#494=VECTOR('',#493,0.6);
#495=LINE('',#492,#494);
#496=EDGE_CURVE('',#381,#283,#495,.T.);
#497=ORIENTED_EDGE('',*,*,#496,.T.);
#498=EDGE_LOOP('',(#484,#490,#491,#497));
#499=FACE_BOUND('',#498,.T.);
#500=ADVANCED_FACE('',(#499),#483,.T.);
#501=CARTESIAN_POINT('',(2.482101769,0.,-0.511412238));
#502=DIRECTION('',(0.996194698,0.,-0.087155743));
#503=DIRECTION('',(0.,1.,0.));
#504=AXIS2_PLACEMENT_3D('',#501,#502,#503);
#505=PLANE('',#504);
#506=ORIENTED_EDGE('',*,*,#263,.F.);
#507=CARTESIAN_POINT('',(2.528730091,-0.3,0.021551925));
#508=DIRECTION('',(0.,1.,0.));
#509=VECTOR('',#508,0.6);
#510=LINE('',#507,#509);
#511=EDGE_CURVE('',#250,#330,#510,.T.);
#512=ORIENTED_EDGE('',*,*,#511,.T.);
#513=ORIENTED_EDGE('',*,*,#418,.F.);
#514=CARTESIAN_POINT('',(2.550519027,-0.3,0.2706006));
#515=DIRECTION('',(0.,1.,0.));
#516=VECTOR('',#515,0.6);
#517=LINE('',#514,#516);
#518=EDGE_CURVE('',#258,#407,#517,.T.);
#519=ORIENTED_EDGE('',*,*,#518,.F.);
#520=EDGE_LOOP('',(#506,#512,#513,#519));
#521=FACE_BOUND('',#520,.T.);
#522=ADVANCED_FACE('',(#521),#505,.T.);
#523=CARTESIAN_POINT('',(1.634019905,0.,0.350783883));
#524=DIRECTION('',(0.087155743,-0.,0.996194698));
#525=DIRECTION('',(-0.,-1.,-0.));
#526=AXIS2_PLACEMENT_3D('',#523,#524,#525);
#527=PLANE('',#526);
#528=ORIENTED_EDGE('',*,*,#412,.T.);
#529=CARTESIAN_POINT('',(1.869688025,0.3,0.330165594));
#530=DIRECTION('',(-0.,-1.,-0.));
#531=VECTOR('',#530,0.6);
#532=LINE('',#529,#531);
#533=EDGE_CURVE('',#398,#266,#532,.T.);
#534=ORIENTED_EDGE('',*,*,#533,.T.);
#535=ORIENTED_EDGE('',*,*,#271,.F.);
#536=ORIENTED_EDGE('',*,*,#518,.T.);
#537=EDGE_LOOP('',(#528,#534,#535,#536));
#538=FACE_BOUND('',#537,.T.);
#539=ADVANCED_FACE('',(#538),#527,.T.);
#540=CARTESIAN_POINT('',(1.612230969,0.,0.101735208));
#541=DIRECTION('',(0.087155743,-0.,0.996194698));
#542=DIRECTION('',(-0.,-1.,-0.));
#543=AXIS2_PLACEMENT_3D('',#540,#541,#542);
#544=PLANE('',#543);
#545=ORIENTED_EDGE('',*,*,#255,.T.);
#546=CARTESIAN_POINT('',(1.689237586,-0.3,0.094998002));
#547=DIRECTION('',(0.,1.,0.));
#548=VECTOR('',#547,0.6);
#549=LINE('',#546,#548);
#550=EDGE_CURVE('',#241,#332,#549,.T.);
#551=ORIENTED_EDGE('',*,*,#550,.T.);
#552=ORIENTED_EDGE('',*,*,#337,.F.);
#553=ORIENTED_EDGE('',*,*,#511,.F.);
#554=EDGE_LOOP('',(#545,#551,#552,#553));
#555=FACE_BOUND('',#554,.T.);
#556=ADVANCED_FACE('',(#555),#544,.F.);
#557=CARTESIAN_POINT('',(1.555102008,0.,0.695));
#558=DIRECTION('',(-0.,-1.,-0.));
#559=DIRECTION('',(0.,0.,-1.));
#560=AXIS2_PLACEMENT_3D('',#557,#558,#559);
#561=CYLINDRICAL_SURFACE('',#560,0.09);
#562=ORIENTED_EDGE('',*,*,#387,.F.);
#563=ORIENTED_EDGE('',*,*,#433,.F.);
#564=ORIENTED_EDGE('',*,*,#297,.F.);
#565=ORIENTED_EDGE('',*,*,#496,.F.);
#566=EDGE_LOOP('',(#562,#563,#564,#565));
#567=FACE_BOUND('',#566,.T.);
#568=ADVANCED_FACE('',(#567),#561,.T.);
#569=CARTESIAN_POINT('',(1.380050123,0.,0.445));
#570=DIRECTION('',(-0.,-1.,-0.));
#571=DIRECTION('',(0.,0.,-1.));
#572=AXIS2_PLACEMENT_3D('',#569,#570,#571);
#573=CYLINDRICAL_SURFACE('',#572,0.09);
#574=ORIENTED_EDGE('',*,*,#319,.F.);
#575=ORIENTED_EDGE('',*,*,#206,.F.);
#576=ORIENTED_EDGE('',*,*,#361,.F.);
#577=ORIENTED_EDGE('',*,*,#474,.F.);
#578=EDGE_LOOP('',(#574,#575,#576,#577));
#579=FACE_BOUND('',#578,.T.);
#580=ADVANCED_FACE('',(#579),#573,.F.);
#581=CARTESIAN_POINT('',(1.70143939,0.,0.23446526));
#582=DIRECTION('',(0.,1.,0.));
#583=DIRECTION('',(0.,-0.,1.));
#584=AXIS2_PLACEMENT_3D('',#581,#582,#583);
#585=CYLINDRICAL_SURFACE('',#584,0.14);
#586=ORIENTED_EDGE('',*,*,#247,.F.);
#587=ORIENTED_EDGE('',*,*,#467,.F.);
#588=ORIENTED_EDGE('',*,*,#346,.F.);
#589=ORIENTED_EDGE('',*,*,#550,.F.);
#590=EDGE_LOOP('',(#586,#587,#588,#589));
#591=FACE_BOUND('',#590,.T.);
#592=ADVANCED_FACE('',(#591),#585,.T.);
#593=CARTESIAN_POINT('',(1.881889829,0.,0.469632852));
#594=DIRECTION('',(0.,1.,0.));
#595=DIRECTION('',(0.,-0.,1.));
#596=AXIS2_PLACEMENT_3D('',#593,#594,#595);
#597=CYLINDRICAL_SURFACE('',#596,0.14);
#598=ORIENTED_EDGE('',*,*,#404,.F.);
#599=ORIENTED_EDGE('',*,*,#489,.F.);
#600=ORIENTED_EDGE('',*,*,#280,.F.);
#601=ORIENTED_EDGE('',*,*,#533,.F.);
#602=EDGE_LOOP('',(#598,#599,#600,#601));
#603=FACE_BOUND('',#602,.T.);
#604=ADVANCED_FACE('',(#603),#597,.F.);
#605=CLOSED_SHELL('',(#224,#323,#422,#444,#456,#478,#500,#522,#539,#556,#568,#580,#592,#604));
#606=MANIFOLD_SOLID_BREP('Body 02',#605);
#184=STYLED_ITEM('',(#183),#606);
#608=CARTESIAN_POINT('',(0.,0.,0.));
#609=DIRECTION('',(0.,0.,1.));
#610=DIRECTION('',(1.,0.,0.));
#611=AXIS2_PLACEMENT_3D('',#608,#609,#610);
#612=PLANE('',#611);
#613=CARTESIAN_POINT('',(0.85,1.025,0.));
#614=VERTEX_POINT('',#613);
#615=CARTESIAN_POINT('',(0.85,-1.025,0.));
#616=VERTEX_POINT('',#615);
#617=CARTESIAN_POINT('',(0.85,1.025,0.));
#618=DIRECTION('',(0.,-1.,0.));
#619=VECTOR('',#618,2.05);
#620=LINE('',#617,#619);
#621=EDGE_CURVE('',#614,#616,#620,.T.);
#622=ORIENTED_EDGE('',*,*,#621,.F.);
#623=CARTESIAN_POINT('',(1.025,1.025,0.));
#624=VERTEX_POINT('',#623);
#625=CARTESIAN_POINT('',(0.85,1.025,0.));
#626=DIRECTION('',(1.,0.,0.));
#627=VECTOR('',#626,0.175);
#628=LINE('',#625,#627);
#629=EDGE_CURVE('',#614,#624,#628,.T.);
#630=ORIENTED_EDGE('',*,*,#629,.T.);
#631=CARTESIAN_POINT('',(1.025,-1.025,0.));
#632=VERTEX_POINT('',#631);
#633=CARTESIAN_POINT('',(1.025,1.025,0.));
#634=DIRECTION('',(0.,-1.,0.));
#635=VECTOR('',#634,2.05);
#636=LINE('',#633,#635);
#637=EDGE_CURVE('',#624,#632,#636,.T.);
#638=ORIENTED_EDGE('',*,*,#637,.T.);
#639=CARTESIAN_POINT('',(1.025,-1.025,0.));
#640=DIRECTION('',(-1.,-0.,0.));
#641=VECTOR('',#640,0.175);
#642=LINE('',#639,#641);
#643=EDGE_CURVE('',#632,#616,#642,.T.);
#644=ORIENTED_EDGE('',*,*,#643,.T.);
#645=EDGE_LOOP('',(#622,#630,#638,#644));
#646=FACE_BOUND('',#645,.T.);
#647=ADVANCED_FACE('',(#646),#612,.F.);
#648=CARTESIAN_POINT('',(-0.,1.025,0.5));
#649=DIRECTION('',(-0.,1.,0.));
#650=DIRECTION('',(-1.,-0.,0.));
#651=AXIS2_PLACEMENT_3D('',#648,#649,#650);
#652=PLANE('',#651);
#653=ORIENTED_EDGE('',*,*,#629,.F.);
#654=CARTESIAN_POINT('',(0.85,1.025,0.35));
#655=VERTEX_POINT('',#654);
#656=CARTESIAN_POINT('',(0.85,1.025,0.));
#657=DIRECTION('',(0.,0.,1.));
#658=VECTOR('',#657,0.35);
#659=LINE('',#656,#658);
#660=EDGE_CURVE('',#614,#655,#659,.T.);
#661=ORIENTED_EDGE('',*,*,#660,.T.);
#662=CARTESIAN_POINT('',(-0.85,1.025,0.35));
#663=VERTEX_POINT('',#662);
#664=CARTESIAN_POINT('',(0.85,1.025,0.35));
#665=DIRECTION('',(-1.,-0.,0.));
#666=VECTOR('',#665,1.7);
#667=LINE('',#664,#666);
#668=EDGE_CURVE('',#655,#663,#667,.T.);
#669=ORIENTED_EDGE('',*,*,#668,.T.);
#670=CARTESIAN_POINT('',(-0.85,1.025,0.));
#671=VERTEX_POINT('',#670);
#672=CARTESIAN_POINT('',(-0.85,1.025,0.35));
#673=DIRECTION('',(0.,0.,-1.));
#674=VECTOR('',#673,0.35);
#675=LINE('',#672,#674);
#676=EDGE_CURVE('',#663,#671,#675,.T.);
#677=ORIENTED_EDGE('',*,*,#676,.T.);
#678=CARTESIAN_POINT('',(-1.025,1.025,0.));
#679=VERTEX_POINT('',#678);
#680=CARTESIAN_POINT('',(-1.025,1.025,0.));
#681=DIRECTION('',(1.,0.,0.));
#682=VECTOR('',#681,0.175);
#683=LINE('',#680,#682);
#684=EDGE_CURVE('',#679,#671,#683,.T.);
#685=ORIENTED_EDGE('',*,*,#684,.F.);
#686=CARTESIAN_POINT('',(-1.025,1.025,1.15));
#687=VERTEX_POINT('',#686);
#688=CARTESIAN_POINT('',(-1.025,1.025,1.15));
#689=DIRECTION('',(0.,0.,-1.));
#690=VECTOR('',#689,1.15);
#691=LINE('',#688,#690);
#692=EDGE_CURVE('',#687,#679,#691,.T.);
#693=ORIENTED_EDGE('',*,*,#692,.F.);
#694=CARTESIAN_POINT('',(1.025,1.025,1.15));
#695=VERTEX_POINT('',#694);
#696=CARTESIAN_POINT('',(-1.025,1.025,1.15));
#697=DIRECTION('',(1.,0.,0.));
#698=VECTOR('',#697,2.05);
#699=LINE('',#696,#698);
#700=EDGE_CURVE('',#687,#695,#699,.T.);
#701=ORIENTED_EDGE('',*,*,#700,.T.);
#702=CARTESIAN_POINT('',(1.025,1.025,1.15));
#703=DIRECTION('',(0.,0.,-1.));
#704=VECTOR('',#703,1.15);
#705=LINE('',#702,#704);
#706=EDGE_CURVE('',#695,#624,#705,.T.);
#707=ORIENTED_EDGE('',*,*,#706,.T.);
#708=EDGE_LOOP('',(#653,#661,#669,#677,#685,#693,#701,#707));
#709=FACE_BOUND('',#708,.T.);
#710=ADVANCED_FACE('',(#709),#652,.T.);
#711=CARTESIAN_POINT('',(0.,-1.025,0.5));
#712=DIRECTION('',(0.,-1.,0.));
#713=DIRECTION('',(1.,0.,0.));
#714=AXIS2_PLACEMENT_3D('',#711,#712,#713);
#715=PLANE('',#714);
#716=CARTESIAN_POINT('',(-0.85,-1.025,0.35));
#717=VERTEX_POINT('',#716);
#718=CARTESIAN_POINT('',(0.85,-1.025,0.35));
#719=VERTEX_POINT('',#718);
#720=CARTESIAN_POINT('',(-0.85,-1.025,0.35));
#721=DIRECTION('',(1.,0.,-0.));
#722=VECTOR('',#721,1.7);
#723=LINE('',#720,#722);
#724=EDGE_CURVE('',#717,#719,#723,.T.);
#725=ORIENTED_EDGE('',*,*,#724,.T.);
#726=CARTESIAN_POINT('',(0.85,-1.025,0.35));
#727=DIRECTION('',(0.,0.,-1.));
#728=VECTOR('',#727,0.35);
#729=LINE('',#726,#728);
#730=EDGE_CURVE('',#719,#616,#729,.T.);
#731=ORIENTED_EDGE('',*,*,#730,.T.);
#732=ORIENTED_EDGE('',*,*,#643,.F.);
#733=CARTESIAN_POINT('',(1.025,-1.025,1.15));
#734=VERTEX_POINT('',#733);
#735=CARTESIAN_POINT('',(1.025,-1.025,1.15));
#736=DIRECTION('',(0.,0.,-1.));
#737=VECTOR('',#736,1.15);
#738=LINE('',#735,#737);
#739=EDGE_CURVE('',#734,#632,#738,.T.);
#740=ORIENTED_EDGE('',*,*,#739,.F.);
#741=CARTESIAN_POINT('',(-1.025,-1.025,1.15));
#742=VERTEX_POINT('',#741);
#743=CARTESIAN_POINT('',(1.025,-1.025,1.15));
#744=DIRECTION('',(-1.,-0.,0.));
#745=VECTOR('',#744,2.05);
#746=LINE('',#743,#745);
#747=EDGE_CURVE('',#734,#742,#746,.T.);
#748=ORIENTED_EDGE('',*,*,#747,.T.);
#749=CARTESIAN_POINT('',(-1.025,-1.025,0.));
#750=VERTEX_POINT('',#749);
#751=CARTESIAN_POINT('',(-1.025,-1.025,1.15));
#752=DIRECTION('',(0.,0.,-1.));
#753=VECTOR('',#752,1.15);
#754=LINE('',#751,#753);
#755=EDGE_CURVE('',#742,#750,#754,.T.);
#756=ORIENTED_EDGE('',*,*,#755,.T.);
#757=CARTESIAN_POINT('',(-0.85,-1.025,0.));
#758=VERTEX_POINT('',#757);
#759=CARTESIAN_POINT('',(-0.85,-1.025,0.));
#760=DIRECTION('',(-1.,-0.,0.));
#761=VECTOR('',#760,0.175);
#762=LINE('',#759,#761);
#763=EDGE_CURVE('',#758,#750,#762,.T.);
#764=ORIENTED_EDGE('',*,*,#763,.F.);
#765=CARTESIAN_POINT('',(-0.85,-1.025,0.));
#766=DIRECTION('',(0.,0.,1.));
#767=VECTOR('',#766,0.35);
#768=LINE('',#765,#767);
#769=EDGE_CURVE('',#758,#717,#768,.T.);
#770=ORIENTED_EDGE('',*,*,#769,.T.);
#771=EDGE_LOOP('',(#725,#731,#732,#740,#748,#756,#764,#770));
#772=FACE_BOUND('',#771,.T.);
#773=ADVANCED_FACE('',(#772),#715,.T.);
#774=CARTESIAN_POINT('',(0.,0.,0.));
#775=DIRECTION('',(0.,0.,1.));
#776=DIRECTION('',(1.,0.,0.));
#777=AXIS2_PLACEMENT_3D('',#774,#775,#776);
#778=PLANE('',#777);
#779=ORIENTED_EDGE('',*,*,#684,.T.);
#780=CARTESIAN_POINT('',(-0.85,1.025,0.));
#781=DIRECTION('',(0.,-1.,0.));
#782=VECTOR('',#781,2.05);
#783=LINE('',#780,#782);
#784=EDGE_CURVE('',#671,#758,#783,.T.);
#785=ORIENTED_EDGE('',*,*,#784,.T.);
#786=ORIENTED_EDGE('',*,*,#763,.T.);
#787=CARTESIAN_POINT('',(-1.025,-0.5,0.));
#788=VERTEX_POINT('',#787);
#789=CARTESIAN_POINT('',(-1.025,-1.025,0.));
#790=DIRECTION('',(-0.,1.,0.));
#791=VECTOR('',#790,0.525);
#792=LINE('',#789,#791);
#793=EDGE_CURVE('',#750,#788,#792,.T.);
#794=ORIENTED_EDGE('',*,*,#793,.T.);
#795=CARTESIAN_POINT('',(-1.025,0.5,0.));
#796=VERTEX_POINT('',#795);
#797=CARTESIAN_POINT('',(-1.025,0.5,0.));
#798=DIRECTION('',(0.,-1.,0.));
#799=VECTOR('',#798,1.);
#800=LINE('',#797,#799);
#801=EDGE_CURVE('',#796,#788,#800,.T.);
#802=ORIENTED_EDGE('',*,*,#801,.F.);
#803=CARTESIAN_POINT('',(-1.025,0.5,0.));
#804=DIRECTION('',(-0.,1.,0.));
#805=VECTOR('',#804,0.525);
#806=LINE('',#803,#805);
#807=EDGE_CURVE('',#796,#679,#806,.T.);
#808=ORIENTED_EDGE('',*,*,#807,.T.);
#809=EDGE_LOOP('',(#779,#785,#786,#794,#802,#808));
#810=FACE_BOUND('',#809,.T.);
#811=ADVANCED_FACE('',(#810),#778,.F.);
#812=CARTESIAN_POINT('',(-1.025,-0.,0.5));
#813=DIRECTION('',(-1.,-0.,0.));
#814=DIRECTION('',(0.,-1.,0.));
#815=AXIS2_PLACEMENT_3D('',#812,#813,#814);
#816=PLANE('',#815);
#817=ORIENTED_EDGE('',*,*,#807,.F.);
#818=CARTESIAN_POINT('',(-1.025,0.5,0.25));
#819=VERTEX_POINT('',#818);
#820=CARTESIAN_POINT('',(-1.025,0.5,0.));
#821=DIRECTION('',(-0.,0.,1.));
#822=VECTOR('',#821,0.25);
#823=LINE('',#820,#822);
#824=EDGE_CURVE('',#796,#819,#823,.T.);
#825=ORIENTED_EDGE('',*,*,#824,.T.);
#826=CARTESIAN_POINT('',(-1.025,-0.5,0.25));
#827=VERTEX_POINT('',#826);
#828=CARTESIAN_POINT('',(-1.025,0.5,0.25));
#829=DIRECTION('',(0.,-1.,0.));
#830=VECTOR('',#829,1.);
#831=LINE('',#828,#830);
#832=EDGE_CURVE('',#819,#827,#831,.T.);
#833=ORIENTED_EDGE('',*,*,#832,.T.);
#834=CARTESIAN_POINT('',(-1.025,-0.5,0.25));
#835=DIRECTION('',(0.,-0.,-1.));
#836=VECTOR('',#835,0.25);
#837=LINE('',#834,#836);
#838=EDGE_CURVE('',#827,#788,#837,.T.);
#839=ORIENTED_EDGE('',*,*,#838,.T.);
#840=ORIENTED_EDGE('',*,*,#793,.F.);
#841=ORIENTED_EDGE('',*,*,#755,.F.);
#842=CARTESIAN_POINT('',(-1.025,-1.025,1.15));
#843=DIRECTION('',(-0.,1.,0.));
#844=VECTOR('',#843,2.05);
#845=LINE('',#842,#844);
#846=EDGE_CURVE('',#742,#687,#845,.T.);
#847=ORIENTED_EDGE('',*,*,#846,.T.);
#848=ORIENTED_EDGE('',*,*,#692,.T.);
#849=EDGE_LOOP('',(#817,#825,#833,#839,#840,#841,#847,#848));
#850=FACE_BOUND('',#849,.T.);
#851=ADVANCED_FACE('',(#850),#816,.T.);
#852=CARTESIAN_POINT('',(1.025,0.,0.5));
#853=DIRECTION('',(1.,0.,0.));
#854=DIRECTION('',(-0.,1.,0.));
#855=AXIS2_PLACEMENT_3D('',#852,#853,#854);
#856=PLANE('',#855);
#857=ORIENTED_EDGE('',*,*,#637,.F.);
#858=ORIENTED_EDGE('',*,*,#706,.F.);
#859=CARTESIAN_POINT('',(1.025,1.025,1.15));
#860=DIRECTION('',(0.,-1.,0.));
#861=VECTOR('',#860,2.05);
#862=LINE('',#859,#861);
#863=EDGE_CURVE('',#695,#734,#862,.T.);
#864=ORIENTED_EDGE('',*,*,#863,.T.);
#865=ORIENTED_EDGE('',*,*,#739,.T.);
#866=EDGE_LOOP('',(#857,#858,#864,#865));
#867=FACE_BOUND('',#866,.T.);
#868=ADVANCED_FACE('',(#867),#856,.T.);
#869=CARTESIAN_POINT('',(0.,0.,1.15));
#870=DIRECTION('',(0.,0.,1.));
#871=DIRECTION('',(1.,0.,0.));
#872=AXIS2_PLACEMENT_3D('',#869,#870,#871);
#873=PLANE('',#872);
#874=ORIENTED_EDGE('',*,*,#863,.F.);
#875=ORIENTED_EDGE('',*,*,#700,.F.);
#876=ORIENTED_EDGE('',*,*,#846,.F.);
#877=ORIENTED_EDGE('',*,*,#747,.F.);
#878=EDGE_LOOP('',(#874,#875,#876,#877));
#879=FACE_BOUND('',#878,.T.);
#880=ADVANCED_FACE('',(#879),#873,.T.);
#881=CARTESIAN_POINT('',(-1.025,-0.,0.628380783));
#882=DIRECTION('',(-1.,-0.,0.));
#883=DIRECTION('',(0.,-1.,0.));
#884=AXIS2_PLACEMENT_3D('',#881,#882,#883);
#885=PLANE('',#884);
#886=ORIENTED_EDGE('',*,*,#824,.F.);
#887=ORIENTED_EDGE('',*,*,#801,.T.);
#888=ORIENTED_EDGE('',*,*,#838,.F.);
#889=ORIENTED_EDGE('',*,*,#832,.F.);
#890=EDGE_LOOP('',(#886,#887,#888,#889));
#891=FACE_BOUND('',#890,.T.);
#892=ADVANCED_FACE('',(#891),#885,.T.);
#893=CARTESIAN_POINT('',(0.85,1.675,0.175));
#894=DIRECTION('',(-1.,0.,0.));
#895=DIRECTION('',(0.,0.,1.));
#896=AXIS2_PLACEMENT_3D('',#893,#894,#895);
#897=PLANE('',#896);
#898=ORIENTED_EDGE('',*,*,#621,.T.);
#899=ORIENTED_EDGE('',*,*,#730,.F.);
#900=CARTESIAN_POINT('',(0.85,1.025,0.35));
#901=DIRECTION('',(0.,-1.,0.));
#902=VECTOR('',#901,2.05);
#903=LINE('',#900,#902);
#904=EDGE_CURVE('',#655,#719,#903,.T.);
#905=ORIENTED_EDGE('',*,*,#904,.F.);
#906=ORIENTED_EDGE('',*,*,#660,.F.);
#907=EDGE_LOOP('',(#898,#899,#905,#906));
#908=FACE_BOUND('',#907,.T.);
#909=ADVANCED_FACE('',(#908),#897,.T.);
#910=CARTESIAN_POINT('',(0.,1.675,0.35));
#911=DIRECTION('',(0.,0.,-1.));
#912=DIRECTION('',(-1.,0.,0.));
#913=AXIS2_PLACEMENT_3D('',#910,#911,#912);
#914=PLANE('',#913);
#915=ORIENTED_EDGE('',*,*,#904,.T.);
#916=ORIENTED_EDGE('',*,*,#724,.F.);
#917=CARTESIAN_POINT('',(-0.85,1.025,0.35));
#918=DIRECTION('',(0.,-1.,0.));
#919=VECTOR('',#918,2.05);
#920=LINE('',#917,#919);
#921=EDGE_CURVE('',#663,#717,#920,.T.);
#922=ORIENTED_EDGE('',*,*,#921,.F.);
#923=ORIENTED_EDGE('',*,*,#668,.F.);
#924=EDGE_LOOP('',(#915,#916,#922,#923));
#925=FACE_BOUND('',#924,.T.);
#926=ADVANCED_FACE('',(#925),#914,.T.);
#927=CARTESIAN_POINT('',(-0.85,1.675,0.175));
#928=DIRECTION('',(1.,0.,0.));
#929=DIRECTION('',(0.,0.,-1.));
#930=AXIS2_PLACEMENT_3D('',#927,#928,#929);
#931=PLANE('',#930);
#932=ORIENTED_EDGE('',*,*,#921,.T.);
#933=ORIENTED_EDGE('',*,*,#769,.F.);
#934=ORIENTED_EDGE('',*,*,#784,.F.);
#935=ORIENTED_EDGE('',*,*,#676,.F.);
#936=EDGE_LOOP('',(#932,#933,#934,#935));
#937=FACE_BOUND('',#936,.T.);
#938=ADVANCED_FACE('',(#937),#931,.T.);
#939=CLOSED_SHELL('',(#647,#710,#773,#811,#851,#868,#880,#892,#909,#926,#938));
#940=MANIFOLD_SOLID_BREP('Body 01*',#939);
#941=COLOUR_RGB('',0.188235298,0.180392161,0.180392161);
#942=FILL_AREA_STYLE_COLOUR('',#941);
#943=FILL_AREA_STYLE('',(#942));
#944=SURFACE_STYLE_FILL_AREA(#943);
#945=SURFACE_SIDE_STYLE('',(#944));
#946=SURFACE_STYLE_USAGE(.BOTH.,#945);
#947=PRESENTATION_STYLE_ASSIGNMENT((#946));
#607=STYLED_ITEM('',(#947),#940);
#949=CARTESIAN_POINT('',(-1.525,-0.,0.));
#950=DIRECTION('',(-1.,0.,0.));
#951=DIRECTION('',(0.,-1.,0.));
#952=AXIS2_PLACEMENT_3D('',#949,#950,#951);
#953=PLANE('',#952);
#954=CARTESIAN_POINT('',(-1.525,0.5,0.));
#955=VERTEX_POINT('',#954);
#956=CARTESIAN_POINT('',(-1.525,0.5,0.25));
#957=VERTEX_POINT('',#956);
#958=CARTESIAN_POINT('',(-1.525,0.5,0.));
#959=DIRECTION('',(0.,0.,1.));
#960=VECTOR('',#959,0.25);
#961=LINE('',#958,#960);
#962=EDGE_CURVE('',#955,#957,#961,.T.);
#963=ORIENTED_EDGE('',*,*,#962,.F.);
#964=CARTESIAN_POINT('',(-1.525,-0.5,0.));
#965=VERTEX_POINT('',#964);
#966=CARTESIAN_POINT('',(-1.525,-0.5,0.));
#967=DIRECTION('',(-0.,1.,-0.));
#968=VECTOR('',#967,1.);
#969=LINE('',#966,#968);
#970=EDGE_CURVE('',#965,#955,#969,.T.);
#971=ORIENTED_EDGE('',*,*,#970,.F.);
#972=CARTESIAN_POINT('',(-1.525,-0.5,0.25));
#973=VERTEX_POINT('',#972);
#974=CARTESIAN_POINT('',(-1.525,-0.5,0.25));
#975=DIRECTION('',(0.,-0.,-1.));
#976=VECTOR('',#975,0.25);
#977=LINE('',#974,#976);
#978=EDGE_CURVE('',#973,#965,#977,.T.);
#979=ORIENTED_EDGE('',*,*,#978,.F.);
#980=CARTESIAN_POINT('',(-1.525,0.5,0.25));
#981=DIRECTION('',(0.,-1.,0.));
#982=VECTOR('',#981,1.);
#983=LINE('',#980,#982);
#984=EDGE_CURVE('',#957,#973,#983,.T.);
#985=ORIENTED_EDGE('',*,*,#984,.F.);
#986=EDGE_LOOP('',(#963,#971,#979,#985));
#987=FACE_BOUND('',#986,.T.);
#988=ADVANCED_FACE('',(#987),#953,.T.);
#989=CARTESIAN_POINT('',(-1.525,-0.,0.25));
#990=DIRECTION('',(0.,0.,1.));
#991=DIRECTION('',(0.,-1.,0.));
#992=AXIS2_PLACEMENT_3D('',#989,#990,#991);
#993=PLANE('',#992);
#994=CARTESIAN_POINT('',(-1.025,0.5,0.25));
#995=VERTEX_POINT('',#994);
#996=CARTESIAN_POINT('',(-1.025,-0.5,0.25));
#997=VERTEX_POINT('',#996);
#998=CARTESIAN_POINT('',(-1.025,0.5,0.25));
#999=DIRECTION('',(0.,-1.,0.));
#1000=VECTOR('',#999,1.);
#1001=LINE('',#998,#1000);
#1002=EDGE_CURVE('',#995,#997,#1001,.T.);
#1003=ORIENTED_EDGE('',*,*,#1002,.F.);
#1004=CARTESIAN_POINT('',(-1.525,0.5,0.25));
#1005=DIRECTION('',(1.,0.,-0.));
#1006=VECTOR('',#1005,0.5);
#1007=LINE('',#1004,#1006);
#1008=EDGE_CURVE('',#957,#995,#1007,.T.);
#1009=ORIENTED_EDGE('',*,*,#1008,.F.);
#1010=ORIENTED_EDGE('',*,*,#984,.T.);
#1011=CARTESIAN_POINT('',(-1.525,-0.5,0.25));
#1012=DIRECTION('',(1.,0.,-0.));
#1013=VECTOR('',#1012,0.5);
#1014=LINE('',#1011,#1013);
#1015=EDGE_CURVE('',#973,#997,#1014,.T.);
#1016=ORIENTED_EDGE('',*,*,#1015,.T.);
#1017=EDGE_LOOP('',(#1003,#1009,#1010,#1016));
#1018=FACE_BOUND('',#1017,.T.);
#1019=ADVANCED_FACE('',(#1018),#993,.T.);
#1020=CARTESIAN_POINT('',(-1.525,-0.5,0.));
#1021=DIRECTION('',(0.,-1.,0.));
#1022=DIRECTION('',(0.,-0.,-1.));
#1023=AXIS2_PLACEMENT_3D('',#1020,#1021,#1022);
#1024=PLANE('',#1023);
#1025=CARTESIAN_POINT('',(-1.025,-0.5,0.));
#1026=VERTEX_POINT('',#1025);
#1027=CARTESIAN_POINT('',(-1.025,-0.5,0.25));
#1028=DIRECTION('',(0.,-0.,-1.));
#1029=VECTOR('',#1028,0.25);
#1030=LINE('',#1027,#1029);
#1031=EDGE_CURVE('',#997,#1026,#1030,.T.);
#1032=ORIENTED_EDGE('',*,*,#1031,.F.);
#1033=ORIENTED_EDGE('',*,*,#1015,.F.);
#1034=ORIENTED_EDGE('',*,*,#978,.T.);
#1035=CARTESIAN_POINT('',(-1.525,-0.5,0.));
#1036=DIRECTION('',(1.,0.,-0.));
#1037=VECTOR('',#1036,0.5);
#1038=LINE('',#1035,#1037);
#1039=EDGE_CURVE('',#965,#1026,#1038,.T.);
#1040=ORIENTED_EDGE('',*,*,#1039,.T.);
#1041=EDGE_LOOP('',(#1032,#1033,#1034,#1040));
#1042=FACE_BOUND('',#1041,.T.);
#1043=ADVANCED_FACE('',(#1042),#1024,.T.);
#1044=CARTESIAN_POINT('',(-1.525,0.5,-0.));
#1045=DIRECTION('',(0.,1.,-0.));
#1046=DIRECTION('',(0.,0.,1.));
#1047=AXIS2_PLACEMENT_3D('',#1044,#1045,#1046);
#1048=PLANE('',#1047);
#1049=CARTESIAN_POINT('',(-1.025,0.5,0.));
#1050=VERTEX_POINT('',#1049);
#1051=CARTESIAN_POINT('',(-1.025,0.5,0.));
#1052=DIRECTION('',(0.,0.,1.));
#1053=VECTOR('',#1052,0.25);
#1054=LINE('',#1051,#1053);
#1055=EDGE_CURVE('',#1050,#995,#1054,.T.);
#1056=ORIENTED_EDGE('',*,*,#1055,.F.);
#1057=CARTESIAN_POINT('',(-1.525,0.5,0.));
#1058=DIRECTION('',(1.,0.,-0.));
#1059=VECTOR('',#1058,0.5);
#1060=LINE('',#1057,#1059);
#1061=EDGE_CURVE('',#955,#1050,#1060,.T.);
#1062=ORIENTED_EDGE('',*,*,#1061,.F.);
#1063=ORIENTED_EDGE('',*,*,#962,.T.);
#1064=ORIENTED_EDGE('',*,*,#1008,.T.);
#1065=EDGE_LOOP('',(#1056,#1062,#1063,#1064));
#1066=FACE_BOUND('',#1065,.T.);
#1067=ADVANCED_FACE('',(#1066),#1048,.T.);
#1068=CARTESIAN_POINT('',(0.,0.,0.));
#1069=DIRECTION('',(0.,0.,1.));
#1070=DIRECTION('',(1.,0.,0.));
#1071=AXIS2_PLACEMENT_3D('',#1068,#1069,#1070);
#1072=PLANE('',#1071);
#1073=ORIENTED_EDGE('',*,*,#1061,.T.);
#1074=CARTESIAN_POINT('',(-1.025,0.5,0.));
#1075=DIRECTION('',(0.,-1.,0.));
#1076=VECTOR('',#1075,1.);
#1077=LINE('',#1074,#1076);
#1078=EDGE_CURVE('',#1050,#1026,#1077,.T.);
#1079=ORIENTED_EDGE('',*,*,#1078,.T.);
#1080=ORIENTED_EDGE('',*,*,#1039,.F.);
#1081=ORIENTED_EDGE('',*,*,#970,.T.);
#1082=EDGE_LOOP('',(#1073,#1079,#1080,#1081));
#1083=FACE_BOUND('',#1082,.T.);
#1084=ADVANCED_FACE('',(#1083),#1072,.F.);
#1085=CARTESIAN_POINT('',(-1.025,-0.,0.628380783));
#1086=DIRECTION('',(-1.,-0.,0.));
#1087=DIRECTION('',(0.,-1.,0.));
#1088=AXIS2_PLACEMENT_3D('',#1085,#1086,#1087);
#1089=PLANE('',#1088);
#1090=ORIENTED_EDGE('',*,*,#1055,.T.);
#1091=ORIENTED_EDGE('',*,*,#1002,.T.);
#1092=ORIENTED_EDGE('',*,*,#1031,.T.);
#1093=ORIENTED_EDGE('',*,*,#1078,.F.);
#1094=EDGE_LOOP('',(#1090,#1091,#1092,#1093));
#1095=FACE_BOUND('',#1094,.T.);
#1096=ADVANCED_FACE('',(#1095),#1089,.F.);
#1097=CLOSED_SHELL('',(#988,#1019,#1043,#1067,#1084,#1096));
#1098=MANIFOLD_SOLID_BREP('Body 01',#1097);
#948=STYLED_ITEM('',(#183),#1098);
#16=SHAPE_REPRESENTATION('root',(#15),#10);
#17=ADVANCED_BREP_SHAPE_REPRESENTATION('root',(#176,#606,#940,#1098),#10);
#1106=SHAPE_REPRESENTATION_RELATIONSHIP('','',#16,#17);
#1107=APPLICATION_CONTEXT('data for automotive mechanical design processes');
#1108=APPLICATION_PROTOCOL_DEFINITION('international standard','automotive_design',1994,#1107);
#1109=PRODUCT_CONTEXT('',#1107,'mechanical');
#1110=PRODUCT_DEFINITION_CONTEXT('part definition',#1107,'design');
#24=PRODUCT('root','root','',(#1109));
#1111=PRODUCT_RELATED_PRODUCT_CATEGORY('part','',(#24));
#1112=PRODUCT_DEFINITION_FORMATION_WITH_SPECIFIED_SOURCE('','',#24,.NOT_KNOWN.);
#25=PRODUCT_DEFINITION('design','',#1112,#1110);
#23=PRODUCT_DEFINITION_SHAPE('','',#25);
#1113=SHAPE_DEFINITION_REPRESENTATION(#23,#16);
#11=DRAUGHTING_MODEL('',(),#10);
#1=MECHANICAL_DESIGN_GEOMETRIC_PRESENTATION_REPRESENTATION('',(#26,#184,#607,#948),#10);
ENDSEC;
END-ISO-10303-21;
